<?xml version="1.0" standalone="no"?>
<!DOCTYPE svg PUBLIC "-//W3C//DTD SVG 20010904//EN"
 "http://www.w3.org/TR/2001/REC-SVG-20010904/DTD/svg10.dtd">
<svg version="1.0" xmlns="http://www.w3.org/2000/svg"
 width="747.000000pt" height="230.000000pt" viewBox="0 0 747.000000 230.000000"
 preserveAspectRatio="xMidYMid meet">

<g transform="translate(0.000000,230.000000) scale(0.100000,-0.100000)"
fill="#000000" stroke="none">
<path d="M2145 1714 c-11 -2 -45 -9 -75 -15 -90 -18 -172 -63 -228 -124 -65
-71 -87 -133 -86 -245 0 -110 25 -169 100 -240 63 -59 140 -97 334 -165 156
-54 204 -77 243 -114 43 -39 57 -74 57 -138 0 -79 -24 -117 -98 -151 -51 -24
-68 -27 -167 -26 -136 0 -271 34 -441 110 -7 3 -15 -29 -22 -90 -18 -142 -23
-130 66 -159 136 -45 237 -61 377 -60 262 1 420 75 493 231 24 50 27 69 27
157 0 89 -4 106 -28 157 -57 117 -176 193 -445 283 -220 74 -272 117 -272 223
0 72 22 107 89 139 128 63 339 36 577 -73 8 -4 14 23 19 83 3 48 9 97 11 109
6 25 -30 41 -182 80 -95 24 -297 41 -349 28z"/>
<path d="M300 1005 l0 -685 405 0 405 0 0 95 0 95 -300 0 -300 0 0 590 0 590
-105 0 -105 0 0 -685z"/>
<path d="M1280 1005 l0 -685 105 0 105 0 0 685 0 685 -105 0 -105 0 0 -685z"/>
<path d="M2820 1590 l0 -100 195 0 195 0 0 -585 0 -585 110 0 110 0 0 585 0
585 195 0 195 0 0 100 0 100 -500 0 -500 0 0 -100z"/>
<path d="M4239 1663 c-6 -15 -114 -318 -241 -671 -126 -354 -232 -650 -235
-658 -5 -12 12 -14 103 -12 l108 3 61 173 60 172 260 -2 260 -3 60 -172 60
-173 108 0 c59 0 107 1 107 3 0 1 -110 308 -244 682 l-243 680 -107 3 -106 3
-11 -28z m215 -542 c47 -134 86 -248 86 -252 0 -5 -83 -9 -185 -9 -110 0 -185
4 -185 10 0 7 132 389 176 510 5 13 6 13 14 0 4 -8 47 -125 94 -259z"/>
<path d="M5120 1005 l0 -685 105 0 105 0 2 263 3 262 135 3 136 3 133 -258
c74 -142 137 -262 141 -266 3 -4 61 -6 127 -5 l120 3 -152 282 -153 282 48 31
c62 40 127 110 150 164 48 108 47 282 -4 391 -29 63 -93 127 -160 160 -94 46
-167 55 -463 55 l-273 0 0 -685z m570 485 c95 -35 144 -109 144 -220 0 -115
-56 -194 -160 -226 -32 -9 -96 -14 -196 -14 l-148 0 0 233 c0 129 3 237 8 241
11 13 313 0 352 -14z"/>
<path d="M6130 1685 c0 -3 108 -184 240 -401 l240 -394 0 -285 0 -285 105 0
105 0 0 291 0 291 239 394 239 394 -118 0 -118 0 -174 -294 c-100 -171 -177
-291 -182 -286 -5 5 -84 136 -176 292 l-168 283 -116 3 c-64 1 -116 0 -116 -3z"/>
</g>
</svg>
