<svg xmlns="http://www.w3.org/2000/svg" version="1.1" xmlns:xlink="http://www.w3.org/1999/xlink" xmlns:svgjs="http://svgjs.dev/svgjs" width="1000" height="980" viewBox="0 0 1000 980"><g transform="matrix(1,0,0,1,0.14987878729294835,0.3967611336032064)"><svg viewBox="0 0 252 247" data-background-color="#ffffff" preserveAspectRatio="xMidYMid meet" height="980" width="1000" xmlns="http://www.w3.org/2000/svg" xmlns:xlink="http://www.w3.org/1999/xlink"><defs></defs><g id="tight-bounds" transform="matrix(1,0,0,1,-0.03776936019272625,-0.09999999999999432)"><svg viewBox="0 0 252.0755388145906 247.2" height="247.2" width="252.0755388145906"><g><svg viewBox="0 0 395.52 387.870018883168" height="247.2" width="252.0755388145906"><g transform="matrix(1,0,0,1,0,262.909414052518)"><svg viewBox="0 0 395.52 124.96060483064994" height="124.96060483064994" width="395.52"><g><svg viewBox="0 0 395.52 124.96060483064994" height="124.96060483064994" width="395.52"><g><svg viewBox="0 0 395.52 80.5873383711167" height="80.5873383711167" width="395.52"><g transform="matrix(1,0,0,1,0,0)"><svg width="395.52" viewBox="3.930000066757202 -35.70000076293945 178.6300048828125 36.400001525878906" height="80.5873383711167" data-palette-color="#35185a"><path d="M24.73 0L3.93 0 3.93-35 9.38-35 9.38-4.9 24.73-4.9 24.73 0ZM34.4 0L28.95 0 28.95-35 34.4-35 34.4 0ZM52.35 0.7L52.35 0.7Q50.2 0.7 47.98 0.34 45.77-0.03 43.9-0.58 42.02-1.13 40.82-1.68L40.82-1.68 41.52-7.48Q43.05-6.73 44.96-6.03 46.87-5.33 49-4.85 51.12-4.38 53.3-4.38L53.3-4.38Q56.32-4.38 58.12-5.51 59.92-6.65 59.92-9.05L59.92-9.05Q59.92-10.85 58.97-11.99 58.02-13.13 56.11-13.96 54.2-14.8 51.25-15.73L51.25-15.73Q48.42-16.63 46.08-17.82 43.75-19.03 42.35-20.96 40.95-22.9 40.95-26.03L40.95-26.03Q40.95-28.85 42.38-31.04 43.82-33.23 46.62-34.46 49.42-35.7 53.55-35.7L53.55-35.7Q56.9-35.7 59.78-34.96 62.67-34.23 64.62-33.38L64.62-33.38 64.07-27.68Q61.17-29.23 58.58-29.93 56-30.63 53.27-30.63L53.27-30.63Q50.32-30.63 48.51-29.58 46.7-28.53 46.7-26.25L46.7-26.25Q46.7-24.6 47.57-23.59 48.45-22.58 50.15-21.85 51.85-21.13 54.3-20.35L54.3-20.35Q58.02-19.23 60.62-17.8 63.22-16.38 64.58-14.33 65.95-12.28 65.95-9.25L65.95-9.25Q65.95-7.3 65.26-5.53 64.57-3.75 63-2.34 61.42-0.93 58.81-0.11 56.2 0.7 52.35 0.7ZM83.74 0L78.29 0 78.29-29.9 68.22-29.9 68.22-35 93.82-35 93.82-29.9 83.74-29.9 83.74 0ZM114.81-13.83L114.81-8.95 99.97-8.95 99.97-13.83 114.81-13.83ZM117.12 0L106.64-29.68 108.14-29.68 97.67 0 92.17 0 104.67-35 110.12-35 122.62 0 117.12 0ZM132.41 0L126.81 0 126.81-35 138.79-35Q142.44-35 145.15-33.86 147.86-32.73 149.36-30.38 150.86-28.03 150.86-24.38L150.86-24.38Q150.86-20.68 149.28-18.31 147.69-15.95 144.84-14.58L144.84-14.58 152.71 0 146.34 0 139.39-13.38Q139.31-13.38 139.26-13.38 139.21-13.38 139.14-13.38L139.14-13.38 132.41-13.38 132.41 0ZM132.41-30.28L132.41-18.1 138.04-18.1Q141.76-18.1 143.47-19.78 145.19-21.45 145.19-24.23L145.19-24.23Q145.19-27.1 143.49-28.69 141.79-30.28 138.14-30.28L138.14-30.28 132.41-30.28ZM170.26 0L164.81 0 164.81-14.73 152.49-35 158.56-35 168.78-17.68 166.24-17.68 176.49-35 182.56-35 170.26-14.73 170.26 0Z" opacity="1" transform="matrix(1,0,0,1,0,0)" fill="#35185a" class="undefined-text-0" data-fill-palette-color="primary" id="text-0"></path></svg></g></svg></g><g transform="matrix(1,0,0,1,75.54431999999998,99.61207486441646)"><svg viewBox="0 0 244.43136 25.3485299662335" height="25.3485299662335" width="244.43136"><g transform="matrix(1,0,0,1,0,0)"><svg width="244.43136" viewBox="3.490000009536743 -37.9900016784668 477.1500244140625 49.4900016784668" height="25.3485299662335" data-palette-color="#35185a"><path d="M3.49-32.79L3.49-37.01 15.5-37.01 15.5-32.79 11.79-32.79 11.79-4.2 24.56-4.2Q24.95-4.2 25.34-4.38 25.73-4.57 26.05-4.86 26.37-5.15 26.56-5.53 26.76-5.91 26.76-6.3L26.76-6.3 26.76-10.96 31.4-10.96 31.4 0 3.49 0 3.49-4.2 7.01-4.2 7.01-32.79 3.49-32.79ZM33.88-21.09L33.88-25.29 42.14-25.29 42.14-4.2 45.94-4.2 45.94 0 33.93 0 33.93-4.2 37.55-4.2 37.55-21.09 33.88-21.09ZM36.69-34.25L36.69-34.25Q36.69-34.89 36.95-35.46 37.2-36.04 37.63-36.46 38.06-36.89 38.64-37.15 39.23-37.4 39.89-37.4L39.89-37.4Q40.52-37.4 41.1-37.15 41.67-36.89 42.1-36.46 42.53-36.04 42.78-35.46 43.04-34.89 43.04-34.25L43.04-34.25Q43.04-33.59 42.78-33.01 42.53-32.42 42.1-31.97 41.67-31.52 41.1-31.26 40.52-31.01 39.89-31.01L39.89-31.01Q39.23-31.01 38.64-31.26 38.06-31.52 37.63-31.97 37.2-32.42 36.95-33.01 36.69-33.59 36.69-34.25ZM64.72-18.51Q64.72-19.53 64.24-20.25 63.76-20.97 63.01-21.42 62.25-21.88 61.32-22.08 60.4-22.29 59.52-22.29L59.52-22.29Q58.54-22.29 57.72-22.07 56.9-21.85 56.32-21.44 55.73-21.02 55.4-20.42 55.07-19.82 55.07-19.09L55.07-19.09Q55.07-17.82 55.84-17.08 56.61-16.33 58.42-15.7L58.42-15.7 63.28-13.99Q66.4-12.94 67.84-11.13 69.28-9.33 69.28-6.81L69.28-6.81Q69.28-5.13 68.61-3.72 67.94-2.32 66.71-1.33 65.47-0.34 63.74 0.21 62.01 0.76 59.88 0.76L59.88 0.76Q56.93 0.76 55.07-0.2 53.22-1.15 52.22-2.71L52.22-2.71 49.68-2.71 49.68-6.91 54.73-6.91Q54.73-5.86 55.18-5.11 55.63-4.37 56.38-3.91 57.12-3.44 58.06-3.22 59-3 59.98-3L59.98-3Q60.93-3 61.81-3.23 62.69-3.47 63.36-3.92 64.03-4.37 64.42-5 64.81-5.64 64.81-6.45L64.81-6.45Q64.81-7.67 64.02-8.52 63.23-9.38 61.32-10.06L61.32-10.06 56.49-11.87Q53.54-12.92 52.11-14.54 50.68-16.16 50.68-18.6L50.68-18.6Q50.68-20.21 51.28-21.58 51.87-22.95 53.01-23.94 54.15-24.93 55.78-25.49 57.42-26.05 59.52-26.05L59.52-26.05Q62.23-26.05 64.06-25.29 65.89-24.54 67.35-22.71L67.35-22.71 69.72-22.71 69.72-18.51 64.72-18.51ZM81.68-33.45L81.68-25.29 87.61-25.29 87.61-21.61 81.63-21.61 81.56-7.01Q81.56-5.52 81.9-4.59 82.24-3.66 83-3.31 83.76-2.95 84.71-2.95L84.71-2.95Q85.73-2.95 86.52-3.14 87.3-3.32 88.22-3.76L88.22-3.76 89.27-0.71Q88.1-0.1 86.81 0.26 85.51 0.61 83.76 0.61L83.76 0.61Q82.1 0.61 80.86 0.21 79.63-0.2 78.79-1.15 77.95-2.1 77.53-3.7 77.12-5.3 77.12-7.69L77.12-7.69 77.19-21.61 73.16-21.61 73.16-25.29 77.24-25.29 77.24-31.35 81.68-33.45ZM107.83 0L107.83-2.34Q106.39-1 104.64-0.15 102.9 0.71 100.67 0.71L100.67 0.71Q98.82 0.71 97.27 0.12 95.72-0.46 94.59-1.48 93.47-2.49 92.85-3.83 92.23-5.18 92.23-6.69L92.23-6.69Q92.23-8.3 92.7-9.55 93.18-10.79 93.97-11.71 94.77-12.62 95.83-13.24 96.89-13.87 98.05-14.25 99.21-14.62 100.42-14.78 101.63-14.94 102.72-14.94L102.72-14.94Q104.48-14.94 105.68-14.83 106.87-14.72 107.85-14.53L107.85-14.53 107.88-16.6Q107.88-17.94 107.49-18.93 107.09-19.92 106.39-20.57 105.68-21.22 104.69-21.53 103.7-21.85 102.48-21.85L102.48-21.85Q101.33-21.85 100.28-21.69 99.23-21.53 98.32-21.28 97.4-21.02 96.63-20.69 95.86-20.36 95.33-20L95.33-20 93.84-23.14Q94.74-23.73 95.82-24.23 96.89-24.73 98.07-25.09 99.26-25.44 100.49-25.65 101.72-25.85 102.92-25.85L102.92-25.85Q105.12-25.85 106.87-25.33 108.63-24.8 109.85-23.71 111.07-22.61 111.73-20.91 112.39-19.21 112.39-16.85L112.39-16.85 112.37-4.2 115.18-4.2 115.18 0 107.83 0ZM101.67-3.1L101.67-3.1Q102.58-3.1 103.48-3.32 104.38-3.54 105.19-3.92 106-4.3 106.68-4.8 107.36-5.3 107.83-5.83L107.83-5.83 107.85-11.55 102.58-11.55Q101.26-11.55 100.17-11.25 99.09-10.96 98.29-10.4 97.5-9.84 97.06-9.01 96.62-8.18 96.62-7.1L96.62-7.1Q96.62-6.1 96.99-5.36 97.35-4.61 98.02-4.11 98.7-3.61 99.62-3.36 100.55-3.1 101.67-3.1ZM134.9-18.51Q134.9-19.53 134.42-20.25 133.95-20.97 133.19-21.42 132.43-21.88 131.51-22.08 130.58-22.29 129.7-22.29L129.7-22.29Q128.72-22.29 127.9-22.07 127.09-21.85 126.5-21.44 125.92-21.02 125.59-20.42 125.26-19.82 125.26-19.09L125.26-19.09Q125.26-17.82 126.03-17.08 126.79-16.33 128.6-15.7L128.6-15.7 133.46-13.99Q136.58-12.94 138.02-11.13 139.47-9.33 139.47-6.81L139.47-6.81Q139.47-5.13 138.79-3.72 138.12-2.32 136.89-1.33 135.66-0.34 133.92 0.21 132.19 0.76 130.07 0.76L130.07 0.76Q127.11 0.76 125.26-0.2 123.4-1.15 122.4-2.71L122.4-2.71 119.86-2.71 119.86-6.91 124.91-6.91Q124.91-5.86 125.37-5.11 125.82-4.37 126.56-3.91 127.31-3.44 128.25-3.22 129.19-3 130.16-3L130.16-3Q131.12-3 131.99-3.23 132.87-3.47 133.54-3.92 134.22-4.37 134.61-5 135-5.64 135-6.45L135-6.45Q135-7.67 134.2-8.52 133.41-9.38 131.51-10.06L131.51-10.06 126.67-11.87Q123.72-12.92 122.29-14.54 120.86-16.16 120.86-18.6L120.86-18.6Q120.86-20.21 121.46-21.58 122.06-22.95 123.19-23.94 124.33-24.93 125.96-25.49 127.6-26.05 129.7-26.05L129.7-26.05Q132.41-26.05 134.24-25.29 136.07-24.54 137.54-22.71L137.54-22.71 139.9-22.71 139.9-18.51 134.9-18.51ZM142.1 0Q142.1 0 142.1 0ZM175.5-26.95Q175.5-29.1 174.71-30.18 173.93-31.25 172.99-31.82 172.05-32.4 170.93-32.7 169.81-33.01 168.68-33.01L168.68-33.01Q166.83-33.01 165.44-32.58 164.05-32.15 163.13-31.42 162.21-30.69 161.75-29.71 161.29-28.74 161.29-27.66L161.29-27.66Q161.29-26.05 161.86-25.06 162.43-24.07 163.31-23.47 164.19-22.88 165.25-22.53 166.32-22.19 167.29-21.85L167.29-21.85 172.22-20.24Q174.45-19.53 176.14-18.63 177.84-17.72 178.99-16.49 180.13-15.26 180.73-13.65 181.33-12.04 181.33-9.91L181.33-9.91Q181.33-7.62 180.39-5.66 179.45-3.71 177.77-2.27 176.08-0.83 173.75-0.01 171.42 0.81 168.63 0.81L168.63 0.81Q165.78 0.81 163.75 0.16 161.73-0.49 160.35-1.57 158.97-2.66 158.14-4.05 157.31-5.44 156.84-6.91L156.84-6.91 154.99-6.91 154.99-11.11 161.14-11.11Q161.14-8.4 161.71-7.28 162.29-6.15 163.31-5.41 164.34-4.66 165.75-4.28 167.17-3.91 168.88-3.91L168.88-3.91Q170.54-3.91 171.87-4.3 173.2-4.69 174.14-5.43 175.08-6.18 175.58-7.24 176.08-8.3 176.08-9.64L176.08-9.64Q176.08-11.13 175.46-12.17 174.84-13.21 173.86-13.94 172.88-14.67 171.72-15.14 170.56-15.6 169.49-15.94L169.49-15.94 164.14-17.46Q162.38-17.99 160.93-18.82 159.48-19.65 158.44-20.85 157.4-22.05 156.84-23.65 156.28-25.24 156.28-27.34L156.28-27.34Q156.28-29.47 157.11-31.32 157.94-33.18 159.55-34.57 161.16-35.96 163.5-36.76 165.83-37.55 168.83-37.55L168.83-37.55Q170.81-37.55 172.48-37.08 174.15-36.62 175.51-35.78 176.86-34.94 177.9-33.75 178.94-32.57 179.65-31.15L179.65-31.15 181.48-31.15 181.48-26.95 175.5-26.95ZM184.82-21.09L184.82-25.29 193.07-25.29 193.07-4.2 196.88-4.2 196.88 0 184.87 0 184.87-4.2 188.48-4.2 188.48-21.09 184.82-21.09ZM187.63-34.25L187.63-34.25Q187.63-34.89 187.88-35.46 188.14-36.04 188.57-36.46 188.99-36.89 189.58-37.15 190.17-37.4 190.82-37.4L190.82-37.4Q191.46-37.4 192.03-37.15 192.61-36.89 193.03-36.46 193.46-36.04 193.72-35.46 193.97-34.89 193.97-34.25L193.97-34.25Q193.97-33.59 193.72-33.01 193.46-32.42 193.03-31.97 192.61-31.52 192.03-31.26 191.46-31.01 190.82-31.01L190.82-31.01Q190.17-31.01 189.58-31.26 188.99-31.52 188.57-31.97 188.14-32.42 187.88-33.01 187.63-33.59 187.63-34.25ZM201.05-21.09L201.05-25.29 209.11-25.29 209.11-22.34 209.16-22.34Q209.99-23.05 210.9-23.67 211.82-24.29 212.82-24.76 213.82-25.22 214.91-25.49 215.99-25.76 217.17-25.76L217.17-25.76Q219.9-25.76 221.88-24.74 223.85-23.73 224.93-21.58L224.93-21.58Q225.86-22.41 226.88-23.18 227.91-23.95 229.02-24.51 230.13-25.07 231.35-25.42 232.57-25.76 233.89-25.76L233.89-25.76Q235.94-25.76 237.58-25.2 239.21-24.63 240.36-23.49 241.51-22.34 242.1-20.54 242.7-18.75 242.7-16.31L242.7-16.31 242.7-4.2 246.22-4.2 246.22 0 234.4 0 234.4-4.2 237.97-4.2 237.97-15.75Q237.97-18.65 236.5-20.15 235.04-21.66 232.28-21.66L232.28-21.66Q230.64-21.66 228.93-20.87 227.22-20.09 226-18.9L226-18.9 226-4.2 229.49-4.2 229.49 0 217.7 0 217.7-4.2 221.27-4.2 221.27-15.75Q221.27-18.65 219.79-20.15 218.31-21.66 215.55-21.66L215.55-21.66Q213.97-21.66 212.36-20.9 210.74-20.14 209.3-19.02L209.3-19.02 209.3-4.2 212.87-4.2 212.87 0 201.05 0 201.05-4.2 204.57-4.2 204.57-21.09 201.05-21.09ZM250.1-21.09L250.1-25.29 258.15-25.29 258.15-23.19Q259.77-24.44 261.67-25.17 263.57-25.9 265.6-25.9L265.6-25.9Q268.09-25.9 270.17-24.98 272.24-24.05 273.74-22.36 275.24-20.68 276.07-18.32 276.9-15.97 276.9-13.11L276.9-13.11Q276.9-10.06 275.98-7.54 275.05-5.03 273.4-3.23 271.75-1.44 269.48-0.44 267.21 0.56 264.5 0.56L264.5 0.56Q262.57 0.56 261.07 0.16 259.57-0.24 258.2-0.88L258.2-0.88 258.2 7.3 262.16 7.3 262.16 11.5 250.15 11.5 250.15 7.3 253.61 7.3 253.61-21.09 250.1-21.09ZM264.4-21.9L264.4-21.9Q262.65-21.9 261.02-21.19 259.4-20.48 258.2-19.24L258.2-19.24 258.2-5.54Q259.01-4.71 260.51-4.05 262.01-3.39 264.26-3.39L264.26-3.39Q265.82-3.39 267.26-4 268.7-4.61 269.8-5.82 270.9-7.03 271.56-8.81 272.22-10.6 272.22-12.94L272.22-12.94Q272.22-15.09 271.59-16.75 270.97-18.41 269.91-19.56 268.85-20.7 267.43-21.3 266.02-21.9 264.4-21.9ZM281.39-33.79L281.39-37.99 289.6-37.99 289.6-4.2 293.41-4.2 293.41 0 281.39 0 281.39-4.2 285.06-4.2 285.06-33.79 281.39-33.79ZM297.65-21.09L297.65-25.29 305.9-25.29 305.9-4.2 309.71-4.2 309.71 0 297.7 0 297.7-4.2 301.31-4.2 301.31-21.09 297.65-21.09ZM300.46-34.25L300.46-34.25Q300.46-34.89 300.71-35.46 300.97-36.04 301.4-36.46 301.83-36.89 302.41-37.15 303-37.4 303.66-37.4L303.66-37.4Q304.29-37.4 304.87-37.15 305.44-36.89 305.87-36.46 306.29-36.04 306.55-35.46 306.81-34.89 306.81-34.25L306.81-34.25Q306.81-33.59 306.55-33.01 306.29-32.42 305.87-31.97 305.44-31.52 304.87-31.26 304.29-31.01 303.66-31.01L303.66-31.01Q303-31.01 302.41-31.26 301.83-31.52 301.4-31.97 300.97-32.42 300.71-33.01 300.46-33.59 300.46-34.25ZM322.23-29.39L322.23-25.29 328.09-25.29 328.09-21.61 322.23-21.61 322.23-4.2 326.19-4.2 326.19 0 313.88 0 313.88-4.2 317.69-4.2 317.69-21.61 313.52-21.61 313.52-25.29 317.69-25.29 317.69-29.25Q317.74-31.45 318.33-33.08 318.91-34.72 319.99-35.82 321.06-36.91 322.57-37.45 324.09-37.99 325.94-37.99L325.94-37.99Q327.24-37.99 328.26-37.87 329.29-37.74 330.09-37.54 330.9-37.33 331.52-37.08 332.15-36.84 332.63-36.6L332.63-36.6 331.24-33.35Q330.46-33.76 329.2-34.06 327.95-34.35 326.58-34.35L326.58-34.35Q324.55-34.35 323.39-33.09 322.23-31.84 322.23-29.39L322.23-29.39ZM331.87-21.09L331.87-25.29 340.13-25.29 340.13-4.2 343.93-4.2 343.93 0 331.92 0 331.92-4.2 335.54-4.2 335.54-21.09 331.87-21.09ZM334.68-34.25L334.68-34.25Q334.68-34.89 334.94-35.46 335.19-36.04 335.62-36.46 336.05-36.89 336.63-37.15 337.22-37.4 337.88-37.4L337.88-37.4Q338.51-37.4 339.09-37.15 339.66-36.89 340.09-36.46 340.52-36.04 340.77-35.46 341.03-34.89 341.03-34.25L341.03-34.25Q341.03-33.59 340.77-33.01 340.52-32.42 340.09-31.97 339.66-31.52 339.09-31.26 338.51-31.01 337.88-31.01L337.88-31.01Q337.22-31.01 336.63-31.26 336.05-31.52 335.62-31.97 335.19-32.42 334.94-33.01 334.68-33.59 334.68-34.25ZM370.96-18.55L366.37-18.55Q365.34-20.39 363.77-21.24 362.19-22.09 360.12-22.09L360.12-22.09Q358.53-22.09 357.14-21.44 355.75-20.78 354.71-19.56 353.67-18.33 353.08-16.59 352.48-14.84 352.48-12.7L352.48-12.7Q352.48-10.57 353.08-8.86 353.67-7.15 354.72-5.94 355.77-4.74 357.15-4.09 358.53-3.44 360.12-3.44L360.12-3.44Q362.46-3.44 364.2-4.58 365.93-5.71 366.95-7.91L366.95-7.91 370.71-6.05Q369.98-4.49 368.91-3.25 367.83-2 366.48-1.12 365.12-0.24 363.5 0.23 361.88 0.71 360.07 0.71L360.07 0.71Q357.43 0.71 355.2-0.28 352.97-1.27 351.34-3.05 349.72-4.83 348.82-7.3 347.91-9.77 347.91-12.7L347.91-12.7Q347.91-15.63 348.86-18.09 349.82-20.56 351.48-22.33 353.14-24.1 355.36-25.1 357.58-26.1 360.12-26.1L360.12-26.1Q362.51-26.1 364.65-25.27 366.78-24.44 368.4-22.75L368.4-22.75 370.96-22.75 370.96-18.55ZM390.27 0L390.27-2.34Q388.83-1 387.08-0.15 385.34 0.71 383.11 0.71L383.11 0.71Q381.26 0.71 379.71 0.12 378.16-0.46 377.04-1.48 375.91-2.49 375.29-3.83 374.67-5.18 374.67-6.69L374.67-6.69Q374.67-8.3 375.14-9.55 375.62-10.79 376.41-11.71 377.21-12.62 378.27-13.24 379.33-13.87 380.49-14.25 381.65-14.62 382.86-14.78 384.07-14.94 385.17-14.94L385.17-14.94Q386.92-14.94 388.12-14.83 389.32-14.72 390.29-14.53L390.29-14.53 390.32-16.6Q390.32-17.94 389.93-18.93 389.54-19.92 388.83-20.57 388.12-21.22 387.13-21.53 386.14-21.85 384.92-21.85L384.92-21.85Q383.77-21.85 382.72-21.69 381.67-21.53 380.76-21.28 379.84-21.02 379.07-20.69 378.3-20.36 377.77-20L377.77-20 376.28-23.14Q377.18-23.73 378.26-24.23 379.33-24.73 380.51-25.09 381.7-25.44 382.93-25.65 384.16-25.85 385.36-25.85L385.36-25.85Q387.56-25.85 389.32-25.33 391.07-24.8 392.29-23.71 393.51-22.61 394.17-20.91 394.83-19.21 394.83-16.85L394.83-16.85 394.81-4.2 397.62-4.2 397.62 0 390.27 0ZM384.12-3.1L384.12-3.1Q385.02-3.1 385.92-3.32 386.83-3.54 387.63-3.92 388.44-4.3 389.12-4.8 389.8-5.3 390.27-5.83L390.27-5.83 390.29-11.55 385.02-11.55Q383.7-11.55 382.61-11.25 381.53-10.96 380.73-10.4 379.94-9.84 379.5-9.01 379.06-8.18 379.06-7.1L379.06-7.1Q379.06-6.1 379.43-5.36 379.79-4.61 380.47-4.11 381.14-3.61 382.06-3.36 382.99-3.1 384.12-3.1ZM417.66-33.79L417.66-37.99 425.64-37.99 425.64-4.2 429.35-4.2 429.35 0 421.1 0 421.1-2.08Q419.88-0.83 418.27-0.13 416.66 0.56 414.61 0.56L414.61 0.56Q412.04 0.56 409.83-0.33 407.62-1.22 406-2.94 404.38-4.66 403.46-7.17 402.55-9.67 402.55-12.89L402.55-12.89Q402.55-15.82 403.42-18.23 404.3-20.63 405.91-22.33 407.53-24.02 409.8-24.96 412.07-25.9 414.85-25.9L414.85-25.9Q416.68-25.9 418.19-25.5 419.71-25.1 421.1-24.1L421.1-24.1 421.1-33.79 417.66-33.79ZM415.19-3.39L415.19-3.39Q417.22-3.39 418.59-3.99 419.95-4.59 421.1-5.79L421.1-5.79 421.1-19.95Q419.88-20.97 418.29-21.44 416.71-21.9 415.05-21.9L415.05-21.9Q413.43-21.9 412.02-21.3 410.6-20.7 409.54-19.56 408.48-18.41 407.87-16.75 407.26-15.09 407.26-12.94L407.26-12.94Q407.26-10.6 407.84-8.81 408.43-7.03 409.48-5.82 410.53-4.61 411.99-4 413.46-3.39 415.19-3.39ZM448.56 0L448.56-2.34Q447.12-1 445.38-0.15 443.63 0.71 441.41 0.71L441.41 0.71Q439.55 0.71 438 0.12 436.45-0.46 435.33-1.48 434.21-2.49 433.59-3.83 432.96-5.18 432.96-6.69L432.96-6.69Q432.96-8.3 433.44-9.55 433.91-10.79 434.71-11.71 435.5-12.62 436.56-13.24 437.63-13.87 438.79-14.25 439.95-14.62 441.15-14.78 442.36-14.94 443.46-14.94L443.46-14.94Q445.22-14.94 446.41-14.83 447.61-14.72 448.59-14.53L448.59-14.53 448.61-16.6Q448.61-17.94 448.22-18.93 447.83-19.92 447.12-20.57 446.41-21.22 445.43-21.53 444.44-21.85 443.22-21.85L443.22-21.85Q442.07-21.85 441.02-21.69 439.97-21.53 439.05-21.28 438.14-21.02 437.37-20.69 436.6-20.36 436.06-20L436.06-20 434.57-23.14Q435.48-23.73 436.55-24.23 437.63-24.73 438.81-25.09 439.99-25.44 441.23-25.65 442.46-25.85 443.66-25.85L443.66-25.85Q445.85-25.85 447.61-25.33 449.37-24.8 450.59-23.71 451.81-22.61 452.47-20.91 453.13-19.21 453.13-16.85L453.13-16.85 453.1-4.2 455.91-4.2 455.91 0 448.56 0ZM442.41-3.1L442.41-3.1Q443.31-3.1 444.22-3.32 445.12-3.54 445.93-3.92 446.73-4.3 447.42-4.8 448.1-5.3 448.56-5.83L448.56-5.83 448.59-11.55 443.31-11.55Q442-11.55 440.91-11.25 439.82-10.96 439.03-10.4 438.24-9.84 437.8-9.01 437.36-8.18 437.36-7.1L437.36-7.1Q437.36-6.1 437.72-5.36 438.09-4.61 438.76-4.11 439.43-3.61 440.36-3.36 441.29-3.1 442.41-3.1ZM475.64-18.51Q475.64-19.53 475.16-20.25 474.68-20.97 473.93-21.42 473.17-21.88 472.24-22.08 471.31-22.29 470.44-22.29L470.44-22.29Q469.46-22.29 468.64-22.07 467.82-21.85 467.24-21.44 466.65-21.02 466.32-20.42 465.99-19.82 465.99-19.09L465.99-19.09Q465.99-17.82 466.76-17.08 467.53-16.33 469.34-15.7L469.34-15.7 474.2-13.99Q477.32-12.94 478.76-11.13 480.2-9.33 480.2-6.81L480.2-6.81Q480.2-5.13 479.53-3.72 478.86-2.32 477.63-1.33 476.39-0.34 474.66 0.21 472.93 0.76 470.8 0.76L470.8 0.76Q467.85 0.76 465.99-0.2 464.14-1.15 463.14-2.71L463.14-2.71 460.6-2.71 460.6-6.91 465.65-6.91Q465.65-5.86 466.1-5.11 466.55-4.37 467.3-3.91 468.04-3.44 468.98-3.22 469.92-3 470.9-3L470.9-3Q471.85-3 472.73-3.23 473.61-3.47 474.28-3.92 474.95-4.37 475.34-5 475.73-5.64 475.73-6.45L475.73-6.45Q475.73-7.67 474.94-8.52 474.15-9.38 472.24-10.06L472.24-10.06 467.41-11.87Q464.45-12.92 463.03-14.54 461.6-16.16 461.6-18.6L461.6-18.6Q461.6-20.21 462.2-21.58 462.79-22.95 463.93-23.94 465.06-24.93 466.7-25.49 468.34-26.05 470.44-26.05L470.44-26.05Q473.15-26.05 474.98-25.29 476.81-24.54 478.27-22.71L478.27-22.71 480.64-22.71 480.64-18.51 475.64-18.51Z" opacity="1" transform="matrix(1,0,0,1,0,0)" fill="#35185a" class="undefined-text-1" data-fill-palette-color="secondary" id="text-1"></path></svg></g></svg></g></svg></g></svg></g><g transform="matrix(1,0,0,1,85.33002946704073,0)"><svg viewBox="0 0 224.85994106591852 224.85994106591852" height="224.85994106591852" width="224.85994106591852"><g><svg></svg></g><g id="icon-0"><svg viewBox="0 0 224.85994106591852 224.85994106591852" height="224.85994106591852" width="224.85994106591852"><g><path d="M0 112.43c0-62.093 50.337-112.43 112.43-112.43 62.093 0 112.43 50.337 112.43 112.43 0 62.093-50.337 112.43-112.43 112.43-62.093 0-112.43-50.337-112.43-112.43zM112.43 217.592c58.08 0 105.163-47.083 105.162-105.162 0-58.08-47.083-105.163-105.162-105.163-58.08 0-105.163 47.083-105.163 105.163 0 58.08 47.083 105.163 105.163 105.162z" data-fill-palette-color="accent" fill="#35185a" stroke="transparent"></path><ellipse rx="111.30567082762967" ry="111.30567082762967" cx="112.42997053295926" cy="112.42997053295926" fill="#35185a" stroke="transparent" stroke-width="0" fill-opacity="1" data-fill-palette-color="accent"></ellipse></g><g transform="matrix(1,0,0,1,49.635226950406725,59.27922489982943)"><svg viewBox="0 0 125.58948716510507 106.30149126625966" height="106.30149126625966" width="125.58948716510507"><g><svg xmlns="http://www.w3.org/2000/svg" xmlns:xlink="http://www.w3.org/1999/xlink" version="1.1" x="0" y="0" viewBox="1.7000000476837158 8.29999828338623 86.60000610351562 73.30000305175781" enable-background="new 0 0 90 90" xml:space="preserve" height="106.30149126625966" width="125.58948716510507" class="icon-x-0" data-fill-palette-color="quaternary" id="x-0"><path d="M6.9 70.8h22.6l0 0L29.1 72l0 0v-0.1l-0.2 0.7H8.3l0 0H8.2c-2.5 0-4.5 2-4.5 4.5s2 4.5 4.5 4.5 4.5-2 4.5-4.5c0-0.6-0.1-1.1-0.3-1.6h15.5c-0.2 0.5-0.3 1-0.3 1.6 0 2.5 2 4.5 4.5 4.5s4.5-2 4.5-4.5c0-2.4-2-4.5-4.5-4.5H32l8-23.3h2.9c0.5 0.7 1.3 1.3 2.3 1.3 0.4 0 0.8-0.1 1.2-0.3 1.4 1 3.1 1.4 4.9 1.1l0.2 1.1 6.3-1.3v18.7c-0.1 0-0.1 0-0.1 0-3.4 0-6.3 2.9-6.4 6.4v3.9h4.5 13 9.4l0 0 0 0V57.9c0.3 0.2 0.7 0.3 1.1 0.3h6.5c1.4 0 2.5-1.1 2.5-2.5V27.8c0-1.4-1.1-2.5-2.5-2.5H81c0.4-2.3 0.2-4.8-0.6-7.2-1.3-3.6-4-6.6-7.5-8.3-2.1-1-4.3-1.5-6.6-1.5-5.5 0-10.5 3.1-12.9 8-1.7 3.4-1.9 7.3-0.6 11 1.2 3.4 3.5 6.1 6.6 7.9-0.3 0.4-0.5 0.8-0.7 1.2-0.6 0.7-0.8 4.4-0.8 5.6l-8.2 1.6 0.2 0.9-3.7 0.8c-0.3-0.1-0.6-0.2-1-0.2-1 0-1.8 0.4-2.3 1.3H39c-0.1 0-0.1 0-0.2 0-0.6 0.1-1 0.5-1.2 1L36 52l0 0H1.7L2 52.9l4.8 17.3 0.1 0.5V70.8zM59.8 37L59.8 37c0.2-0.4 0.5-0.8 0.7-1.2 2 0.9 4.1 1.4 6.3 1.4l0 0c2.9 0 5.6-0.8 7.9-2.3 1.3 1.7 2.1 3.8 2.1 6v35h-8.1c-0.3-3-2.6-5.5-5.5-5.9V59.1h-1.1v10.8c-0.7 0-1.4 0.1-2.1 0.4-0.3-0.1-0.6-0.2-0.9-0.3V50.9l6.1-1.2c2.4-0.5 4-2.9 3.5-5.3s-2.9-4-5.3-3.5l-4.1 0.8C59.4 40.1 59.6 37.6 59.8 37zM61.7 11.1c1.5 0.7 6.4 3.4 7.7 6.8V18c0.1 0.2 0.1 0.3 0.1 0.3 0.2 0.8 0.3 2.4-0.9 5-2 4-6.1 6.6-10.5 6.6-1 0-1.9-0.1-2.8-0.3-0.5-0.8-1-1.7-1.3-2.7-1.2-3.3-1-6.9 0.5-10 1.4-2.8 3.7-4.9 6.4-6.1C61.4 11 61.7 11.2 61.7 11.1zM78.5 28.7c-0.8 1.8-2.1 3.3-3.6 4.5-0.2 0.2-0.3 0.3-0.5 0.4 0 0.1-0.1 0.1-0.1 0.1-0.1 0.1-0.3 0.2-0.5 0.3-2.1 1.3-4.5 2-7 2-2.1 0-4.1-0.5-6-1.4-0.2-0.1-0.5-0.3-0.7-0.4-1.7-1-3.1-2.2-4.2-3.7 0.7 0.1 1.5 0.2 2.2 0.2 4.7 0 9-2.8 11.1-7 1.3-2.6 1.2-4.5 1-5.5 0 0 0-0.1-0.1-0.3v-0.1c-0.5-1.2-2.1-4.3-8.1-7.2 0 0-0.1 0-0.2-0.1 1.4-0.5 2.9-0.8 4.5-0.8 2.1 0 4.1 0.5 6 1.4 3.2 1.6 5.6 4.3 6.8 7.6C80.3 22 80.1 25.5 78.5 28.7zM78.1 31.8c0.6-0.8 1.2-1.6 1.6-2.5 0.4-0.9 0.8-1.7 1-2.6h5.1c0.6 0 1.1 0.5 1.1 1.1v27.9c0 0.6-0.5 1.1-1.1 1.1h-6.6c-0.6 0-1.1-0.5-1.1-1.1V31.8L78.1 31.8zM76.9 33.1L76.9 33.1l-0.1 2.6c-0.3-0.6-0.6-1.1-1-1.6C76.2 33.8 76.5 33.5 76.9 33.1zM57.2 77.2h6.9l0 0h12.7l0 0v1.7H57.2V77.2zM57.7 75.9h-0.6c0-0.7 0.2-1.3 0.5-1.8 0.3-0.7 0.7-1.2 1.3-1.7 0.3-0.2 0.6-0.4 0.9-0.6 0.5-0.2 1-0.4 1.6-0.5 0.1-0.1 0.3-0.1 0.5-0.1 0.1 0 0.1 0 0.2 0 0.2 0 0.3 0 0.5 0s0.3 0.1 0.5 0.1c2.1 0.4 3.8 2.3 4.1 4.5H64h-0.8-0.5l0 0H62h-3l0 0L57.7 75.9 57.7 75.9zM52.8 77.2h2.9v1.7h-2.9V77.2zM58.3 71.2c-0.2 0.1-0.4 0.3-0.6 0.5-1.1 1.1-1.8 2.5-2 4.1h-3.1c0.4-2.6 2.5-4.6 5.1-4.6C57.7 71.2 58 71.2 58.3 71.2zM51.3 44.7l8-1.6 0 0 0 0 4.5-0.9c1.7-0.3 3.4 0.8 3.7 2.5 0.3 1.7-0.8 3.4-2.5 3.7l-12.5 2.5L51.3 44.7zM45.3 47.1l4.2-0.9 0.9 4.1C48.2 50.3 46.2 49.1 45.3 47.1zM9.7 77.1c0 0.9-0.7 1.6-1.6 1.6S6.5 78 6.5 77.1s0.7-1.6 1.6-1.6l0 0c0 0 0.1 0 0.2 0l0 0C9.2 75.6 9.8 76.3 9.7 77.1zM21.8 69.3l0.2-4.9h5l-0.9 4.9H21.8zM21.7 64.2h-5l-0.3-5.1h5.5L21.7 64.2zM16.5 64.2h-4.9l-0.8-5.1h5.4L16.5 64.2zM16.8 64.4h4.9l-0.2 4.9H17L16.8 64.4zM12.4 69.3l-0.7-4.9h4.8l0.3 4.9H12.4zM6.7 64.4h4.7l0.7 4.9H8L6.7 64.4zM5.2 59.1h5.4l0.8 5.1H6.6L5.2 59.1zM9.6 53.5l0.8 5.1H5l-1.4-5.1H9.6zM16.2 58.6h-5.4L10 53.5h5.9L16.2 58.6zM22.2 53.5L22 58.6h-5.5l-0.3-5.1H22.2zM22.3 59.1H28l-1 5.1h-5L22.3 59.1zM28.9 53.5L28 58.6h-5.8l0.2-5.1H28.9zM33.7 58.6h-5.4l0.9-5.1h6.3L33.7 58.6zM31.9 64.2h-4.5l0.9-5.1h5.3L31.9 64.2zM30.4 77.1c0-0.9 0.7-1.6 1.6-1.6 0.9 0 1.6 0.7 1.6 1.6s-0.7 1.6-1.6 1.6C31.1 78.7 30.4 78 30.4 77.1zM26.4 69.3l0.9-4.9h4.4L30 69.3H26.4zM85.1 31.2c0.4 0 0.7 0.3 0.7 0.7s-0.3 0.7-0.7 0.7H80c-0.4 0-0.7-0.3-0.7-0.7s0.3-0.7 0.7-0.7H85.1zM80 33.3h5.1c0.4 0 0.7 0.3 0.7 0.7s-0.3 0.7-0.7 0.7H80c-0.4 0-0.7-0.3-0.7-0.7S79.6 33.3 80 33.3zM80 35.3h5.1c0.4 0 0.7 0.3 0.7 0.7s-0.3 0.7-0.7 0.7H80c-0.4 0-0.7-0.3-0.7-0.7C79.3 35.7 79.6 35.4 80 35.3z" fill="#ffffff" data-fill-palette-color="quaternary"></path></svg></g></svg></g></svg></g></svg></g><g></g></svg></g></svg><rect width="252.0755388145906" height="247.2" fill="none" stroke="none" visibility="hidden"></rect></g></svg></g></svg>