<?xml version="1.0" standalone="no"?>
<!DOCTYPE svg PUBLIC "-//W3C//DTD SVG 20010904//EN"
 "http://www.w3.org/TR/2001/REC-SVG-20010904/DTD/svg10.dtd">
<svg version="1.0" xmlns="http://www.w3.org/2000/svg"
 width="384.000000pt" height="126.000000pt" viewBox="0 0 384.000000 126.000000"
 preserveAspectRatio="xMidYMid meet">

<g transform="translate(0.000000,126.000000) scale(0.100000,-0.100000)"
fill="#000000" stroke="none">
<path d="M347 910 l-39 -36 24 -12 c21 -11 21 -12 1 -7 -30 8 -36 -8 -13 -33
19 -21 19 -21 0 -27 -16 -5 -17 -10 -10 -31 8 -19 6 -24 -6 -24 -12 0 -13 -4
-3 -21 6 -12 7 -19 1 -15 -13 8 -28 -13 -35 -49 -3 -16 -8 -41 -11 -54 -3 -14
0 -31 7 -39 9 -12 9 -16 0 -19 -7 -3 -13 -11 -13 -19 0 -9 -4 -13 -9 -10 -5 3
-9 -5 -9 -19 1 -14 5 -22 10 -19 6 4 5 -3 -1 -14 -6 -11 -12 -49 -13 -84 -2
-35 -5 76 -8 247 l-5 310 -3 -357 c-1 -233 2 -366 9 -385 13 -34 55 -80 91
-99 40 -21 776 -21 816 0 36 19 78 65 91 99 7 19 10 152 9 385 l-2 357 -6
-352 c-3 -193 -9 -355 -14 -360 -5 -4 -5 2 -2 15 5 14 3 22 -5 22 -8 0 -8 4 1
16 8 8 9 14 4 13 -5 -1 -17 1 -27 6 -10 4 -20 5 -24 2 -3 -3 -12 1 -21 9 -13
14 -13 17 -1 25 8 5 10 9 4 9 -15 0 -37 -16 -36 -26 1 -5 -11 -9 -25 -9 l-27
-1 24 16 c39 25 78 72 84 102 13 57 -14 62 -79 16 -56 -39 -121 -41 -188 -7
-55 28 -53 25 -36 51 14 22 49 115 47 127 0 3 -18 -32 -40 -78 -43 -92 -44
-85 26 -123 27 -15 58 -22 97 -22 49 -1 62 4 97 32 22 17 45 32 50 32 25 0 8
-46 -28 -80 -73 -69 -174 -74 -292 -14 -50 25 -52 25 -87 8 -44 -21 -139 -21
-179 -1 -49 26 -68 55 -67 103 2 100 99 127 226 63 l37 -19 40 106 c23 58 41
111 41 118 0 7 -10 21 -22 32 l-23 19 19 -23 c19 -22 19 -24 1 -75 -19 -54
-63 -147 -69 -147 -2 0 -23 9 -47 20 -27 12 -66 20 -102 20 -50 0 -61 -4 -82
-26 -34 -37 -48 -84 -35 -118 6 -16 6 -34 2 -42 -7 -13 -10 -13 -21 0 -10 11
-10 16 -2 16 8 0 8 4 -1 14 -17 18 -30 -1 -18 -24 6 -12 5 -17 -6 -17 -12 0
-14 36 -15 226 -2 290 -2 293 -23 285 -9 -3 -12 -12 -8 -22 5 -15 4 -15 -11
-3 -16 13 -15 16 14 41 18 15 28 29 23 32 -5 2 -26 -12 -47 -32z m147 -539 c3
-5 -3 -11 -13 -14 -14 -3 -18 -1 -14 9 6 16 19 18 27 5z m306 -39 c3 -3 -3 -2
-12 1 -9 3 -18 1 -21 -6 -2 -6 -6 -2 -9 11 -5 19 -4 21 15 10 12 -6 24 -13 27
-16z m79 -31 c7 -5 9 -11 5 -14 -5 -3 -15 1 -22 9 -14 16 -5 18 17 5z m-652
-53 c-3 -7 -5 -2 -5 12 0 14 2 19 5 13 2 -7 2 -19 0 -25z m866 -125 c-7 -2
-19 -2 -25 0 -7 3 -2 5 12 5 14 0 19 -2 13 -5z"/>
<path d="M1838 713 c12 -2 30 -2 40 0 9 3 -1 5 -23 4 -22 0 -30 -2 -17 -4z"/>
<path d="M916 684 c-3 -9 -6 -21 -5 -27 0 -7 4 -3 8 8 4 11 21 23 37 26 l29 7
-31 1 c-21 1 -34 -5 -38 -15z"/>
<path d="M2055 620 c-4 -6 6 -10 24 -10 16 0 38 -3 48 -6 16 -5 16 -4 -1 10
-22 18 -62 21 -71 6z"/>
<path d="M2603 623 c-26 -10 -12 -18 31 -18 34 0 42 3 34 13 -10 12 -42 15
-65 5z"/>
<path d="M2270 610 c19 -13 30 -13 30 0 0 6 -10 10 -22 10 -19 0 -20 -2 -8
-10z"/>
<path d="M2400 611 c0 -4 11 -6 25 -3 14 2 25 6 25 8 0 2 -11 4 -25 4 -14 0
-25 -4 -25 -9z"/>
<path d="M2974 600 c-12 -5 -25 -14 -29 -20 -6 -9 -2 -9 13 -1 11 6 33 11 49
11 22 0 25 2 13 10 -18 11 -18 11 -46 0z"/>
<path d="M2145 580 c3 -5 22 -10 41 -10 19 0 34 5 34 10 0 6 -18 10 -41 10
-24 0 -38 -4 -34 -10z"/>
<path d="M2508 573 c12 -2 32 -2 45 0 12 2 2 4 -23 4 -25 0 -35 -2 -22 -4z"/>
<path d="M1971 524 c19 -18 169 -66 169 -54 0 5 -19 14 -42 20 -24 5 -65 19
-93 30 -39 16 -46 17 -34 4z"/>
<path d="M2622 500 c-19 -4 -39 -13 -45 -20 -10 -10 -8 -11 8 -5 11 4 37 9 58
12 20 3 37 10 37 14 0 10 -12 10 -58 -1z"/>
<path d="M533 465 c-10 -29 26 -55 76 -55 51 0 82 14 66 29 -12 11 -100 41
-121 41 -8 0 -17 -7 -21 -15z m82 -20 l40 -13 -40 -1 c-22 0 -49 6 -59 14 -20
15 -20 15 0 14 10 0 37 -6 59 -14z"/>
<path d="M2197 387 c-41 -32 -143 -36 -197 -8 -23 12 -39 17 -35 11 3 -6 18
-16 33 -24 70 -35 166 -27 211 18 31 31 26 33 -12 3z"/>
<path d="M2333 368 c14 -13 34 -18 71 -17 l51 1 -59 9 c-32 5 -64 12 -70 16
-7 5 -3 0 7 -9z"/>
<path d="M2508 370 c33 -27 80 -34 129 -17 24 8 47 11 55 6 18 -12 76 -11 83
1 4 6 -12 10 -39 10 -25 0 -46 5 -46 10 0 6 -13 4 -30 -5 -37 -19 -106 -19
-145 0 l-30 15 23 -20z"/>
<path d="M1465 360 c4 -6 65 -10 151 -10 89 0 144 4 144 10 0 6 -57 10 -151
10 -97 0 -148 -4 -144 -10z"/>
<path d="M1815 360 c3 -5 21 -10 40 -10 19 0 37 5 40 10 4 6 -12 10 -40 10
-28 0 -44 -4 -40 -10z"/>
<path d="M2835 360 c3 -5 21 -10 40 -10 19 0 37 5 40 10 4 6 -12 10 -40 10
-28 0 -44 -4 -40 -10z"/>
<path d="M1176 316 c10 -8 21 -12 24 -10 5 6 -21 24 -34 24 -6 0 -1 -6 10 -14z"/>
<path d="M3210 270 c-8 -5 -37 -10 -63 -10 -30 0 -46 -4 -42 -10 9 -15 60 -12
100 4 19 8 35 17 35 20 0 9 -13 7 -30 -4z"/>
</g>
</svg>
