<?xml version="1.0" standalone="no"?>
<!DOCTYPE svg PUBLIC "-//W3C//DTD SVG 20010904//EN"
 "http://www.w3.org/TR/2001/REC-SVG-20010904/DTD/svg10.dtd">
<svg version="1.0" xmlns="http://www.w3.org/2000/svg"
 width="1000.000000pt" height="1000.000000pt" viewBox="0 0 1000.000000 1000.000000"
 preserveAspectRatio="xMidYMid meet">

<g transform="translate(0.000000,1000.000000) scale(0.100000,-0.100000)"
fill="#000000" stroke="none">
<path d="M4745 8414 c-926 -124 -1631 -853 -1725 -1783 -51 -510 112 -1045
439 -1445 316 -386 758 -636 1256 -712 147 -22 423 -22 570 0 916 139 1604
864 1695 1785 63 641 -205 1293 -705 1710 -296 247 -677 409 -1057 450 -129
14 -349 12 -473 -5z m930 -1053 c152 -54 255 -200 255 -363 l0 -48 70 0 c117
0 110 29 110 -425 0 -467 14 -428 -151 -423 l-109 3 0 -282 0 -283 -345 0
-345 0 0 62 c0 106 52 182 135 195 l35 6 0 238 c0 132 -3 239 -7 239 -5 -1
-37 -7 -73 -15 -82 -18 -90 -18 -90 -1 0 9 -7 12 -18 9 -10 -2 -38 3 -62 11
-25 9 -59 16 -76 16 -17 0 -37 7 -44 15 -11 13 -90 23 -90 11 0 -2 -45 -134
-100 -294 -55 -159 -100 -293 -100 -296 0 -3 9 -6 21 -6 12 0 36 -15 55 -34
29 -29 34 -41 34 -79 0 -75 -61 -127 -133 -113 -55 10 -103 76 -93 127 l6 29
-195 0 -195 0 0 -35 c0 -51 -26 -94 -65 -111 -44 -18 -59 -18 -101 2 -72 34
-85 133 -24 187 l30 27 285 0 c271 0 285 1 295 19 5 11 10 22 10 25 0 3 -130
6 -290 6 -159 0 -290 2 -290 5 0 5 -112 411 -126 458 -5 16 20 17 435 17 l439
0 22 65 c25 74 38 85 107 85 26 0 57 7 67 15 11 8 36 15 57 15 55 0 99 11 99
25 0 7 34 19 88 29 127 25 118 19 125 85 4 32 12 70 18 84 11 24 8 29 -44 77
-140 128 -167 327 -66 478 42 63 106 115 178 143 64 25 184 25 256 0z"/>
<path d="M5505 7345 c-5 -2 -23 -6 -39 -10 l-30 -6 60 -38 c69 -44 140 -118
150 -156 17 -68 -24 -172 -92 -235 -61 -56 -117 -81 -198 -89 l-71 -6 35 -34
c137 -131 362 -126 485 11 141 157 101 407 -82 515 -63 37 -177 62 -218 48z"/>
<path d="M5358 7290 c-121 -80 -172 -227 -129 -369 26 -85 40 -95 125 -89 144
12 275 138 276 264 0 51 -37 106 -106 156 -43 31 -106 68 -117 68 -2 0 -24
-14 -49 -30z"/>
<path d="M5899 6863 c-11 -26 -27 -55 -35 -64 -12 -13 -14 -68 -12 -335 l3
-319 105 0 105 0 0 380 0 380 -73 3 -72 3 -21 -48z m146 -83 c0 -12 -16 -16
-74 -18 -73 -3 -100 6 -86 28 4 7 34 10 83 8 61 -2 77 -6 77 -18z m3 -57 c3
-10 -18 -13 -82 -13 -71 0 -86 3 -86 15 0 13 14 15 82 13 54 -2 83 -7 86 -15z
m-2 -44 c11 -19 -18 -29 -88 -29 -64 0 -86 9 -73 30 9 14 152 13 161 -1z"/>
<path d="M5803 6724 c-3 -8 -1 -20 6 -27 8 -8 11 -4 11 16 0 30 -7 35 -17 11z"/>
<path d="M5719 6678 c-84 -43 -156 -46 -301 -12 -24 5 -27 3 -37 -32 -6 -22
-11 -54 -11 -73 0 -33 1 -33 33 -27 85 18 114 18 145 2 78 -40 81 -160 4 -200
-21 -10 -165 -46 -188 -46 -2 0 -4 -110 -4 -244 0 -177 3 -245 12 -248 6 -2
24 -2 40 0 l28 4 0 139 c0 117 2 139 15 139 13 0 15 -22 15 -138 l0 -138 40
-18 c42 -18 74 -55 91 -106 l11 -30 105 0 104 0 -3 478 -3 477 -24 48 c-14 26
-27 46 -30 46 -4 -1 -22 -10 -42 -21z"/>
<path d="M5309 6478 l-146 -30 14 -77 c8 -42 15 -77 16 -78 1 -1 79 14 172 33
147 29 173 37 193 59 29 34 28 70 -3 100 -31 32 -59 31 -246 -7z"/>
<path d="M5052 6397 c-42 -12 -42 -12 -27 -35 19 -25 65 -52 93 -52 17 0 18 4
8 50 -11 54 -10 54 -74 37z"/>
<path d="M3943 6208 c2 -7 10 -37 17 -65 l14 -53 69 0 69 0 -6 38 c-18 101 -9
92 -93 92 -56 0 -74 -3 -70 -12z"/>
<path d="M4111 6173 c4 -27 8 -56 8 -65 1 -15 11 -18 70 -18 l70 0 4 38 4 37
1 -37 2 -38 70 0 70 0 0 65 0 65 -74 0 c-69 0 -75 -2 -79 -22 l-4 -23 -2 23
c-1 21 -5 22 -74 22 l-74 0 8 -47z"/>
<path d="M4420 6155 l0 -64 144 0 144 0 21 58 c11 32 21 61 21 65 0 3 -36 6
-79 6 -79 0 -80 0 -84 -27 l-4 -28 -2 28 -1 27 -80 0 -80 0 0 -65z m157 -32
c-3 -10 -5 -4 -5 12 0 17 2 24 5 18 2 -7 2 -21 0 -30z"/>
<path d="M3983 6068 c2 -7 10 -37 17 -65 l14 -53 193 0 193 0 0 43 c0 23 3 52
6 65 6 21 4 22 -64 22 l-71 0 -4 -47 -3 -48 -2 48 -2 47 -141 0 c-109 0 -140
-3 -136 -12z m144 -35 c-3 -10 -5 -4 -5 12 0 17 2 24 5 18 2 -7 2 -21 0 -30z
m10 -65 c-3 -7 -5 -2 -5 12 0 14 2 19 5 13 2 -7 2 -19 0 -25z"/>
<path d="M4416 6043 c-3 -21 -6 -50 -6 -65 0 -28 1 -28 64 -28 l63 0 12 57 c6
31 11 60 11 65 0 4 -31 8 -69 8 l-68 0 -7 -37z"/>
<path d="M4566 6043 c-4 -21 -9 -50 -12 -65 l-6 -28 59 0 59 0 17 53 c25 78
25 77 -47 77 l-64 0 -6 -37z"/>
<path d="M4024 5923 c3 -10 10 -37 16 -60 l11 -43 49 0 c48 0 49 1 53 33 l4
32 1 -32 2 -33 55 0 55 0 0 60 0 60 -59 0 c-57 0 -60 -1 -64 -27 l-4 -28 -2
28 c-1 26 -3 27 -62 27 -53 0 -60 -2 -55 -17z"/>
<path d="M4280 5880 l0 -60 60 0 60 0 0 60 0 60 -60 0 -60 0 0 -60z"/>
<path d="M4410 5880 l0 -60 103 0 103 0 17 53 c9 30 17 57 17 60 0 4 -54 7
-120 7 l-120 0 0 -60z m125 -5 c-4 -25 -9 -44 -12 -41 -2 2 -1 25 2 51 4 25 9
44 12 41 2 -2 1 -25 -2 -51z"/>
<path d="M5273 5755 c-31 -13 -73 -66 -73 -92 0 -8 14 -13 35 -13 20 0 38 6
40 13 13 36 27 64 41 85 20 27 7 29 -43 7z"/>
<path d="M5384 5751 c-27 -12 -46 -30 -57 -54 -9 -19 -17 -38 -17 -41 0 -3 59
-6 130 -6 72 0 130 3 130 8 0 19 -43 74 -72 92 -41 25 -62 25 -114 1z"/>
<path d="M4026 5644 c-20 -19 -20 -38 -2 -54 23 -19 61 -8 64 18 7 44 -32 67
-62 36z"/>
<path d="M4640 5646 c-6 -8 -10 -25 -8 -38 4 -30 46 -38 65 -12 17 23 16 29
-3 48 -19 20 -38 20 -54 2z"/>
<path d="M5200 5590 c0 -16 7 -20 35 -20 28 0 35 4 35 20 0 16 -7 20 -35 20
-28 0 -35 -4 -35 -20z"/>
<path d="M5310 5590 c0 -20 5 -20 252 -18 232 3 253 4 256 21 3 16 -14 17
-252 17 -250 0 -256 0 -256 -20z"/>
<path d="M3345 3774 c-11 -2 -45 -9 -75 -15 -90 -18 -172 -63 -228 -124 -65
-71 -87 -133 -86 -245 0 -110 25 -169 100 -240 63 -59 140 -97 334 -165 156
-54 204 -77 243 -114 43 -39 57 -74 57 -138 0 -79 -24 -117 -98 -151 -51 -24
-68 -27 -167 -26 -136 0 -271 34 -441 110 -7 3 -15 -29 -22 -90 -18 -142 -23
-130 66 -159 136 -45 237 -61 377 -60 262 1 420 75 493 231 24 50 27 69 27
157 0 89 -4 106 -28 157 -57 117 -176 193 -445 283 -220 74 -272 117 -272 223
0 72 22 107 89 139 128 63 339 36 577 -73 8 -4 14 23 19 83 3 48 9 97 11 109
6 25 -30 41 -182 80 -95 24 -297 41 -349 28z"/>
<path d="M1500 3065 l0 -685 405 0 405 0 0 95 0 95 -300 0 -300 0 0 590 0 590
-105 0 -105 0 0 -685z"/>
<path d="M2480 3065 l0 -685 105 0 105 0 0 685 0 685 -105 0 -105 0 0 -685z"/>
<path d="M4020 3650 l0 -100 195 0 195 0 0 -585 0 -585 110 0 110 0 0 585 0
585 195 0 195 0 0 100 0 100 -500 0 -500 0 0 -100z"/>
<path d="M5439 3723 c-6 -15 -114 -318 -241 -671 -126 -354 -232 -650 -235
-658 -5 -12 12 -14 103 -12 l108 3 61 173 60 172 260 -2 260 -3 60 -172 60
-173 108 0 c59 0 107 1 107 3 0 1 -110 308 -244 682 l-243 680 -107 3 -106 3
-11 -28z m215 -542 c47 -134 86 -248 86 -252 0 -5 -83 -9 -185 -9 -110 0 -185
4 -185 10 0 7 132 389 176 510 5 13 6 13 14 0 4 -8 47 -125 94 -259z"/>
<path d="M6320 3065 l0 -685 105 0 105 0 2 263 3 262 135 3 136 3 133 -258
c74 -142 137 -262 141 -266 3 -4 61 -6 127 -5 l120 3 -152 282 -153 282 48 31
c62 40 127 110 150 164 48 108 47 282 -4 391 -29 63 -93 127 -160 160 -94 46
-167 55 -463 55 l-273 0 0 -685z m570 485 c95 -35 144 -109 144 -220 0 -115
-56 -194 -160 -226 -32 -9 -96 -14 -196 -14 l-148 0 0 233 c0 129 3 237 8 241
11 13 313 0 352 -14z"/>
<path d="M7330 3745 c0 -3 108 -184 240 -401 l240 -394 0 -285 0 -285 105 0
105 0 0 291 0 291 239 394 239 394 -118 0 -118 0 -174 -294 c-100 -171 -177
-291 -182 -286 -5 5 -84 136 -176 292 l-168 283 -116 3 c-64 1 -116 0 -116 -3z"/>
<path d="M5360 2000 c0 -11 7 -20 15 -20 13 0 15 -22 15 -135 0 -113 -2 -135
-15 -135 -8 0 -15 -9 -15 -20 0 -17 7 -20 50 -20 43 0 50 3 50 20 0 11 -7 20
-15 20 -13 0 -15 24 -15 155 l0 155 -35 0 c-28 0 -35 -4 -35 -20z"/>
<path d="M6597 2013 c-13 -12 -7 -33 8 -33 11 0 15 -12 15 -45 0 -43 -1 -44
-24 -35 -34 13 -91 -5 -116 -37 -14 -19 -20 -40 -20 -80 0 -47 4 -59 29 -83
27 -27 32 -29 120 -29 83 0 91 2 91 20 0 12 -7 19 -20 19 -19 0 -20 7 -20 155
l0 155 -28 0 c-16 0 -32 -3 -35 -7z m11 -152 c9 -5 12 -28 10 -77 -3 -65 -5
-69 -31 -78 -22 -8 -32 -6 -55 11 -37 27 -44 101 -13 132 21 21 66 27 89 12z"/>
<path d="M2840 1991 c0 -12 7 -21 15 -21 13 0 15 -21 15 -130 0 -109 -2 -130
-15 -130 -8 0 -15 -9 -15 -20 0 -19 7 -20 125 -20 l125 0 0 50 c0 43 -3 50
-19 50 -14 0 -21 -8 -23 -27 -3 -27 -5 -28 -70 -31 l-68 -3 0 131 c0 125 1
130 21 130 14 0 19 5 17 18 -2 13 -15 18 -56 20 -47 3 -52 1 -52 -17z"/>
<path d="M3147 2004 c-12 -12 -8 -42 6 -47 21 -8 39 8 35 29 -3 19 -29 30 -41
18z"/>
<path d="M4269 1996 c-32 -18 -53 -66 -44 -98 12 -38 36 -58 92 -74 61 -18 83
-36 83 -68 0 -33 -19 -46 -65 -46 -44 0 -65 13 -65 42 0 13 -8 18 -30 18 -39
0 -38 -17 4 -63 31 -34 38 -37 89 -37 68 0 105 26 113 81 8 49 -23 82 -106
111 -58 21 -65 26 -68 53 -4 36 18 55 65 55 24 0 37 -7 49 -25 10 -15 26 -25
40 -25 32 0 30 14 -5 52 -23 24 -39 31 -77 35 -31 2 -59 -2 -75 -11z"/>
<path d="M4517 2004 c-12 -12 -8 -42 6 -47 21 -8 39 8 35 29 -3 19 -29 30 -41
18z"/>
<path d="M5533 1994 c-3 -8 2 -23 11 -32 16 -16 18 -16 31 2 11 14 12 23 4 33
-15 18 -38 16 -46 -3z"/>
<path d="M5707 1992 c-10 -10 -17 -35 -17 -55 0 -30 -4 -37 -20 -37 -11 0 -20
-6 -20 -14 0 -7 9 -16 20 -19 18 -5 20 -14 20 -81 0 -69 -2 -76 -20 -76 -13 0
-20 -7 -20 -20 0 -18 7 -20 55 -20 48 0 55 2 55 20 0 11 -7 20 -15 20 -12 0
-15 16 -15 80 0 79 0 80 25 80 16 0 25 6 25 15 0 9 -10 15 -26 15 -23 0 -25 3
-22 38 3 35 5 37 42 42 60 8 59 30 -2 30 -35 0 -54 -5 -65 -18z"/>
<path d="M5843 1994 c-3 -8 2 -23 11 -32 15 -15 17 -15 33 0 13 14 14 20 3 32
-16 20 -39 20 -47 0z"/>
<path d="M3523 1963 c-7 -2 -13 -18 -13 -34 0 -22 -5 -29 -20 -29 -11 0 -20
-6 -20 -14 0 -7 9 -16 20 -19 18 -5 20 -14 20 -89 0 -52 5 -89 12 -96 18 -18
88 -16 88 3 0 10 -10 15 -30 15 -36 0 -43 19 -38 105 3 57 4 60 31 63 35 4 37
32 2 32 -22 0 -25 4 -25 35 0 35 -3 38 -27 28z"/>
<path d="M3302 1898 c-23 -12 -36 -43 -30 -75 2 -10 27 -30 61 -46 48 -23 58
-32 55 -50 -4 -28 -58 -36 -78 -13 -14 18 -50 21 -50 5 0 -22 45 -48 85 -49
50 0 85 23 85 56 0 42 -17 62 -69 79 -51 17 -67 35 -48 54 16 16 67 14 73 -4
8 -20 54 -20 54 0 0 16 -69 55 -97 54 -10 0 -28 -5 -41 -11z"/>
<path d="M3943 1900 c-29 -12 -46 -46 -39 -76 5 -18 22 -32 66 -51 33 -14 60
-31 60 -37 0 -34 -56 -48 -84 -21 -8 8 -24 15 -35 15 -12 0 -21 -6 -21 -15 0
-8 6 -15 14 -15 7 0 19 -7 26 -15 8 -9 30 -15 56 -15 50 0 84 26 84 63 0 29
-21 48 -83 76 -36 15 -48 25 -45 38 4 24 60 30 78 9 17 -22 50 -20 50 2 0 11
-15 24 -40 35 -44 19 -55 20 -87 7z"/>
<path d="M5206 1903 c-3 -4 -35 -6 -71 -5 -54 2 -65 -1 -65 -14 0 -9 9 -18 20
-21 19 -5 20 -14 20 -130 0 -116 -1 -125 -20 -130 -11 -3 -20 -12 -20 -19 0
-10 15 -14 55 -14 42 0 55 3 55 15 0 8 -7 15 -15 15 -11 0 -15 11 -15 38 0 38
0 38 35 34 76 -9 125 37 125 117 0 67 -20 95 -82 114 -9 3 -19 3 -22 0z m45
-54 c15 -15 19 -30 17 -66 -4 -58 -38 -89 -87 -78 -31 7 -31 7 -31 74 0 39 5
72 12 79 19 19 66 14 89 -9z"/>
<path d="M6023 1894 c-103 -51 -68 -224 47 -224 47 0 103 40 83 61 -9 9 -18 7
-39 -10 -35 -27 -59 -27 -89 4 -31 30 -33 82 -4 119 23 30 68 35 93 11 21 -21
56 -19 56 3 0 12 -15 23 -47 35 -58 21 -60 21 -100 1z"/>
<path d="M7033 1900 c-29 -12 -46 -46 -39 -76 5 -17 22 -31 60 -48 61 -27 73
-41 56 -61 -16 -19 -54 -19 -74 0 -18 18 -56 20 -56 2 0 -21 55 -47 99 -47 28
0 48 7 61 20 40 40 20 82 -56 115 -41 18 -55 29 -52 42 4 24 60 30 78 9 17
-22 50 -20 50 2 0 11 -15 24 -40 35 -44 19 -55 20 -87 7z"/>
<path d="M3110 1884 c0 -9 9 -18 20 -21 18 -5 20 -14 20 -79 0 -67 -2 -74 -20
-74 -13 0 -20 -7 -20 -20 0 -18 7 -20 55 -20 48 0 55 2 55 20 0 11 -7 20 -15
20 -12 0 -15 17 -15 95 l0 95 -40 0 c-30 0 -40 -4 -40 -16z"/>
<path d="M3678 1893 c-10 -2 -18 -11 -18 -19 0 -12 9 -14 45 -8 51 7 75 -5 75
-40 0 -18 -6 -21 -47 -22 -38 -1 -51 -6 -70 -29 -27 -31 -25 -70 4 -92 21 -16
85 -17 101 -1 9 9 12 9 12 0 0 -7 14 -12 35 -12 28 0 35 4 35 20 0 11 -7 20
-15 20 -12 0 -15 15 -15 78 0 95 -13 113 -81 111 -24 -1 -52 -3 -61 -6z m102
-142 c0 -16 -6 -34 -14 -40 -20 -17 -67 -10 -80 12 -9 15 -7 22 13 38 13 10
36 19 52 19 25 0 29 -4 29 -29z"/>
<path d="M4480 1880 c0 -11 7 -20 15 -20 12 0 15 -15 15 -75 0 -60 -3 -75 -15
-75 -8 0 -15 -9 -15 -20 0 -18 7 -20 55 -20 48 0 55 2 55 20 0 11 -7 20 -15
20 -12 0 -15 17 -15 95 l0 95 -40 0 c-33 0 -40 -3 -40 -20z"/>
<path d="M4630 1880 c0 -11 7 -20 15 -20 12 0 15 -15 15 -75 0 -60 -3 -75 -15
-75 -8 0 -15 -9 -15 -20 0 -17 7 -20 50 -20 43 0 50 3 50 20 0 11 -7 20 -15
20 -12 0 -15 14 -15 69 0 67 1 69 30 81 23 10 37 10 55 2 23 -11 25 -17 25
-82 0 -56 -3 -70 -15 -70 -8 0 -15 -9 -15 -21 0 -18 5 -20 52 -17 54 3 78 25
39 35 -20 5 -22 11 -19 71 3 60 6 68 30 81 21 12 31 13 52 3 24 -11 26 -16 26
-82 0 -56 -3 -70 -15 -70 -8 0 -15 -9 -15 -20 0 -18 7 -20 55 -20 48 0 55 2
55 20 0 13 -7 20 -20 20 -18 0 -20 7 -20 78 0 64 -4 82 -18 95 -24 21 -81 22
-110 1 -21 -15 -25 -15 -41 0 -21 19 -91 21 -110 4 -11 -10 -14 -10 -18 0 -3
6 -20 12 -39 12 -27 0 -34 -4 -34 -20z"/>
<path d="M5500 1884 c0 -9 9 -18 20 -21 18 -5 20 -14 20 -79 0 -59 -3 -74 -15
-74 -8 0 -15 -9 -15 -20 0 -17 7 -20 50 -20 43 0 50 3 50 20 0 11 -7 20 -15
20 -12 0 -15 17 -15 95 l0 95 -40 0 c-30 0 -40 -4 -40 -16z"/>
<path d="M5810 1884 c0 -9 9 -18 20 -21 18 -5 20 -14 20 -79 0 -59 -3 -74 -15
-74 -8 0 -15 -9 -15 -20 0 -17 7 -20 50 -20 43 0 50 3 50 20 0 11 -7 20 -15
20 -12 0 -15 17 -15 95 l0 95 -40 0 c-30 0 -40 -4 -40 -16z"/>
<path d="M6237 1893 c-35 -9 -11 -28 32 -25 48 4 71 -10 71 -44 0 -20 -4 -23
-22 -19 -35 8 -80 -8 -101 -37 -20 -27 -17 -56 9 -83 18 -17 90 -20 100 -4 4
8 9 8 17 0 6 -6 24 -11 39 -11 21 0 28 5 28 20 0 11 -7 20 -15 20 -12 0 -15
15 -15 78 0 95 -13 113 -81 111 -24 -1 -52 -3 -62 -6z m103 -142 c0 -16 -6
-34 -14 -40 -20 -17 -67 -10 -80 12 -9 15 -7 22 13 38 13 10 36 19 52 19 25 0
29 -4 29 -29z"/>
<path d="M6768 1893 c-10 -2 -18 -11 -18 -19 0 -12 9 -14 45 -8 51 7 75 -5 75
-40 0 -18 -6 -21 -45 -22 -79 -2 -122 -67 -75 -114 23 -23 88 -28 108 -8 9 9
12 9 12 0 0 -7 14 -12 35 -12 28 0 35 4 35 20 0 11 -7 20 -15 20 -12 0 -15 15
-15 73 0 96 -14 117 -78 116 -26 -1 -55 -3 -64 -6z m102 -143 c0 -19 -7 -33
-19 -40 -44 -23 -89 -1 -76 39 6 21 22 28 68 30 24 1 27 -3 27 -29z"/>
</g>
</svg>
