<?xml version="1.0" standalone="no"?>
<!DOCTYPE svg PUBLIC "-//W3C//DTD SVG 20010904//EN"
 "http://www.w3.org/TR/2001/REC-SVG-20010904/DTD/svg10.dtd">
<svg version="1.0" xmlns="http://www.w3.org/2000/svg"
 width="225.000000pt" height="225.000000pt" viewBox="0 0 225.000000 225.000000"
 preserveAspectRatio="xMidYMid meet">

<g transform="translate(0.000000,225.000000) scale(0.100000,-0.100000)"
fill="#000000" stroke="none">
<path d="M120 1246 c0 -10 27 -13 110 -12 l110 1 0 -49 c0 -31 -6 -56 -16 -67
-10 -11 -12 -19 -5 -24 6 -3 14 1 17 9 9 23 24 9 24 -21 0 -22 -2 -24 -15 -13
-13 11 -14 10 -9 -4 5 -13 0 -16 -23 -16 -29 0 -63 26 -63 47 0 5 -23 9 -52 8
-69 -3 -66 -1 -60 -31 4 -23 2 -25 -24 -22 -28 3 -28 3 -29 78 -1 54 3 81 14
95 16 20 16 20 -6 1 -21 -17 -23 -28 -23 -108 l0 -88 40 0 c36 0 40 3 40 25 0
23 4 25 43 25 36 0 46 -4 57 -25 l13 -25 166 0 c175 0 182 2 220 53 12 15 10
17 -15 17 -19 0 -25 -3 -16 -9 10 -6 7 -12 -12 -24 -19 -13 -47 -16 -125 -15
l-101 1 -1 31 c0 17 0 53 1 80 1 30 -2 46 -9 42 -5 -4 -11 6 -13 21 l-3 28
-117 2 c-91 2 -118 -1 -118 -11z"/>
<path d="M413 1240 c1 -10 6 -16 12 -12 15 10 47 13 42 5 -3 -5 30 -6 74 -3
43 3 79 2 79 -2 0 -15 -26 -21 -86 -19 -38 1 -70 -3 -83 -11 -39 -24 -23 -33
54 -31 41 1 75 -1 75 -6 0 -20 -30 -31 -88 -31 -54 0 -63 -2 -58 -16 3 -9 6
-16 6 -17 0 -1 27 0 60 1 54 3 62 7 95 43 31 34 40 39 80 39 36 0 45 -4 46
-17 0 -10 1 -44 2 -75 l1 -58 43 0 43 0 0 76 0 75 48 -3 47 -3 3 -72 3 -73 39
0 c36 0 40 3 40 25 0 23 4 25 43 25 36 0 46 -4 57 -25 l13 -25 166 0 165 0 28
27 28 27 0 -27 c0 -25 3 -27 40 -27 l40 0 0 50 c0 28 3 50 6 50 3 0 31 -22 62
-49 l57 -50 129 -2 128 -3 33 32 c29 29 64 45 51 24 -3 -5 6 -19 19 -30 19
-17 38 -22 81 -22 34 0 53 4 49 10 -3 6 -28 10 -55 10 -44 0 -51 3 -78 38
l-31 37 -38 -38 c-35 -33 -44 -37 -86 -36 l-47 2 0 95 0 96 32 -30 c62 -58 68
-64 68 -75 0 -8 5 -7 15 1 14 12 10 19 -32 56 l-48 42 40 -5 c24 -3 51 -15 67
-30 16 -16 33 -23 43 -19 9 3 14 10 11 15 -10 15 25 36 60 36 31 0 32 -1 17
-17 -9 -10 -21 -15 -27 -11 -6 3 -8 2 -3 -2 4 -5 -2 -19 -14 -31 -13 -14 -17
-24 -10 -28 6 -4 36 17 67 47 30 30 52 57 47 60 -4 2 -28 5 -53 6 -37 1 -49
-4 -77 -31 l-33 -32 -30 29 c-27 26 -39 30 -93 31 l-62 2 3 -104 4 -104 -26 2
c-25 2 -26 4 -26 73 0 50 5 78 17 95 16 25 16 25 -3 8 -24 -21 -36 -23 -33 -5
4 30 -3 37 -35 37 -39 0 -46 -11 -46 -73 0 -23 -4 -37 -8 -32 -4 6 -32 31 -62
56 l-55 46 -157 1 c-141 1 -157 -1 -155 -16 1 -15 13 -16 108 -12 l108 5 3
-65 c3 -55 0 -68 -20 -91 -21 -26 -26 -27 -127 -28 l-105 -1 0 80 c0 52 -4 79
-10 75 -6 -4 -10 6 -10 24 l0 30 -394 0 c-378 -1 -395 -1 -393 -19z m518 -4
c-1 -3 -3 -5 -5 -3 -2 1 -13 -6 -24 -17 -16 -13 -32 -17 -66 -14 -45 3 -46 3
-47 -27 -3 -118 -3 -120 -26 -123 -22 -3 -23 -1 -23 75 l0 79 -40 -4 c-22 -2
-48 -1 -57 2 -15 6 -15 8 3 20 13 9 61 14 144 15 68 1 127 4 129 7 5 5 13 -2
12 -10z m254 -48 c0 -34 -5 -57 -14 -64 -18 -14 -22 -51 -6 -51 7 0 12 7 11
15 0 8 5 17 12 19 8 3 12 -5 12 -24 0 -26 -3 -28 -38 -28 -39 0 -72 18 -72 39
0 7 -20 10 -60 8 -56 -4 -60 -5 -60 -28 0 -19 -5 -23 -24 -22 -24 2 -25 6 -28
84 -2 45 0 80 3 78 4 -2 12 2 18 10 9 10 43 14 129 15 l117 2 0 -53z m453 -13
l67 -56 5 58 c4 52 7 58 28 59 21 1 22 -2 22 -93 l0 -93 -27 0 c-19 1 -50 19
-97 60 -38 33 -72 58 -75 55 -2 -3 -3 -30 -2 -60 l2 -55 -30 0 -31 0 0 95 0
95 35 -4 c24 -3 56 -22 103 -61z"/>
<path d="M1061 1202 c-46 -2 -68 -8 -77 -20 -22 -30 -5 -40 74 -44 l77 -3 2
32 c2 18 0 33 -5 35 -4 2 -36 2 -71 0z m57 -34 c-5 -15 -118 -24 -118 -10 0
17 14 22 68 22 38 0 53 -4 50 -12z"/>
<path d="M142 1183 c-18 -35 -4 -43 76 -43 l77 0 0 30 0 30 -72 0 c-59 0 -74
-3 -81 -17z m136 -15 c-5 -15 -118 -24 -118 -10 0 17 14 22 68 22 38 0 53 -4
50 -12z"/>
<path d="M1277 1173 c-5 -12 -7 -33 -3 -47 6 -25 10 -26 71 -26 39 0 65 4 65
11 0 5 3 8 8 6 4 -3 6 13 6 35 l-1 40 -68 2 c-61 1 -69 -1 -78 -21z m133 -28
c0 -26 -2 -27 -65 -27 -56 1 -55 0 -55 20 0 28 9 32 67 32 50 0 53 -1 53 -25z"/>
<path d="M2116 1095 c14 -19 31 -35 37 -35 6 0 -4 16 -23 35 -19 19 -36 35
-37 35 -2 0 8 -16 23 -35z"/>
<path d="M1925 1090 c-10 -11 -22 -17 -28 -13 -6 4 -7 1 -2 -6 5 -9 13 -7 31
10 13 12 24 24 24 26 0 7 -8 2 -25 -17z"/>
</g>
</svg>
